<svg id="Layer_1" height="512" viewBox="0 0 512 512" width="512" xmlns="http://www.w3.org/2000/svg" data-name="Layer 1"><path d="m125.533 372.73a6 6 0 1 0 -8.484 8.486l14.821 14.821a6 6 0 1 0 8.484-8.486z"/><path d="m128.675 241.7a6 6 0 0 0 8.484-8.485l-63.036-63.036 20.662-20.433 17.063 17.063 77.822 77.822-123.2 123.2a16 16 0 0 0 0 22.628l56.15 56.15a16.02 16.02 0 0 0 22.627 0l123.2-123.2 88.818 88.818a5.933 5.933 0 0 0 .83.678c.081.057.163.11.247.162a5.957 5.957 0 0 0 .806.425c.043.018.084.043.128.061a6.09 6.09 0 0 0 .8.257l64.1 15.793a6 6 0 0 0 7.261-7.261l-15.794-64.1a6.042 6.042 0 0 0 -.257-.8c-.018-.044-.043-.085-.062-.129a6 6 0 0 0 -.424-.805c-.052-.084-.106-.166-.163-.248a5.965 5.965 0 0 0 -.678-.83l-88.817-88.817 122.458-122.449a16 16 0 0 0 0-22.628l-56.15-56.151a16.019 16.019 0 0 0 -22.627 0l-32.188 32.187-90.267 90.268-99.037-99.04a6 6 0 0 0 -8.485 0l-2.936 2.936-8.126-8.262a29.823 29.823 0 0 0 -21.4-8.976h-.022a30.042 30.042 0 0 0 -21.241 51.285l8.319 8.317-32.14 31.789a6 6 0 0 0 -.024 8.509zm272.66 117.978-39.824 39.822-236.934-236.932 39.823-39.824zm-264.57 78.451a4.008 4.008 0 0 1 -5.659 0l-56.15-56.15a4 4 0 0 1 0-5.657l83.967-83.967 26.8 26.8a6 6 0 1 0 8.484-8.486l-26.8-26.8 30.751-30.75 61.808 61.807zm236.511-33.423 33.264-33.263 10.875 44.138zm-92.984-233.72 26.8 26.8a6 6 0 1 0 8.484-8.486l-26.8-26.8 52.2-52.2 15.861 15.861a6 6 0 1 0 8.484-8.485l-15.861-15.859 27.946-27.946a4.007 4.007 0 0 1 5.658 0l56.151 56.15a4.006 4.006 0 0 1 0 5.657l-122.454 122.455-61.808-61.808zm-124.376-56.727-39.824 39.824-12.728-12.728 39.824-39.824zm-62.207 3.041a18.042 18.042 0 0 1 12.757-30.8h.013a17.911 17.911 0 0 1 12.85 5.391l8.2 8.332-24.329 24.324-1.13 1.117z"/></svg>